<svg width="301.026" height="80.032" viewBox="0 0 301.026 80.032" xmlns="http://www.w3.org/2000/svg"><g id="svgGroup" stroke-linecap="round" fill-rule="evenodd" font-size="9pt" stroke="#00000000" stroke-width="0" fill="#000" style="stroke:#00000000;stroke-width:0;fill:#000"><path d="M 146.338 23.975 L 149.219 24.365 A 1.402 1.402 0 0 0 149.809 24.226 Q 150.028 24.125 150.255 23.95 A 3.823 3.823 0 0 0 150.66 23.584 A 2.537 2.537 0 0 1 152.338 22.813 A 3.441 3.441 0 0 1 152.613 22.803 Q 153.809 22.803 154.517 23.438 A 4.099 4.099 0 0 1 154.81 23.726 Q 155.094 24.037 155.184 24.302 A 0.729 0.729 0 0 1 155.225 24.536 Q 155.225 25 154.737 26.074 A 41.639 41.639 0 0 0 154.542 26.509 Q 154.287 27.087 154.188 27.372 A 2.312 2.312 0 0 0 154.151 27.49 A 429.687 429.687 0 0 0 151.944 34.607 Q 148.646 45.606 147.885 50.843 A 18.831 18.831 0 0 0 147.657 53.467 Q 147.7 55.186 148.348 55.43 A 0.636 0.636 0 0 0 148.536 55.469 A 3.788 3.788 0 0 0 150.206 54.996 Q 152.552 53.811 156.179 49.658 A 73.731 73.731 0 0 0 157.862 47.656 Q 162.11 42.432 163.355 39.99 A 20.082 20.082 0 0 1 163.795 39.171 A 1196.142 1196.142 0 0 0 163.868 39.014 A 130.022 130.022 0 0 1 166.713 33.081 Q 170.266 26.166 173.389 22.656 A 3.398 3.398 0 0 1 175.349 21.642 A 4.681 4.681 0 0 1 175.977 21.582 Q 180.372 21.582 181.676 23.586 A 3.674 3.674 0 0 1 182.227 25.635 Q 182.068 27.345 179.932 32.15 A 126.155 126.155 0 0 1 178.858 34.497 Q 175.684 41.26 174.17 41.26 A 1.483 1.483 0 0 1 173.765 41.121 A 1.043 1.043 0 0 1 173.243 40.479 A 0.805 0.805 0 0 1 173.3 40.193 Q 173.391 39.955 173.623 39.674 A 3.604 3.604 0 0 1 173.731 39.551 Q 174.121 39.122 174.636 38.132 A 20.157 20.157 0 0 0 174.903 37.598 Q 177.051 33.301 177.051 30.371 A 16.384 16.384 0 0 0 176.999 29.016 Q 176.888 27.685 176.54 26.856 A 3.065 3.065 0 0 0 176.221 26.27 A 1.835 1.835 0 0 0 175.377 26.54 Q 174.367 27.122 173.145 28.955 A 36.282 36.282 0 0 0 170.707 33.462 Q 169.029 37.12 167.652 41.846 Q 165.332 49.805 165.332 54.443 Q 165.332 55.371 165.381 55.908 A 6.307 6.307 0 0 0 165.57 57.161 Q 166.122 59.229 168.164 59.229 A 12.907 12.907 0 0 0 172.995 58.155 Q 179.726 55.411 189.307 45.654 A 17.965 17.965 0 0 1 189.914 45.073 Q 191.811 43.346 192.213 44.244 A 1.093 1.093 0 0 1 192.286 44.482 A 2.102 2.102 0 0 1 192.21 45.003 Q 192.079 45.511 191.717 46.204 A 13.108 13.108 0 0 1 191.309 46.924 A 27.951 27.951 0 0 1 188.844 50.34 Q 187.472 51.984 185.707 53.691 A 59.288 59.288 0 0 1 183.448 55.762 A 46.924 46.924 0 0 1 179.657 58.774 Q 175.498 61.716 172.067 62.423 A 10.382 10.382 0 0 1 169.971 62.646 A 8.242 8.242 0 0 1 167.004 62.09 A 7.369 7.369 0 0 1 164.014 59.863 Q 161.768 57.178 161.182 54.443 A 19.59 19.59 0 0 1 160.74 50.318 A 20.798 20.798 0 0 1 160.811 48.704 A 72.954 72.954 0 0 1 158.91 51.264 Q 152.48 59.473 147.51 59.473 A 4.519 4.519 0 0 1 145.328 58.977 Q 143.461 57.966 143.072 54.891 A 14.1 14.1 0 0 1 142.969 53.125 A 19.471 19.471 0 0 1 143.127 50.757 Q 143.408 48.475 144.19 45.581 Q 145.411 41.064 145.655 39.941 A 41.784 41.784 0 0 0 145.048 40.762 Q 143.332 43.127 138.135 50.586 Q 132.898 58.102 130.083 60.577 A 7.863 7.863 0 0 1 128.955 61.426 Q 128.388 61.741 127.922 61.873 A 2.46 2.46 0 0 1 127.442 61.963 A 5.513 5.513 0 0 1 125.778 61.726 A 4.129 4.129 0 0 1 123.389 59.766 A 4.068 4.068 0 0 1 123.053 58.915 Q 122.811 58.054 122.782 56.835 A 13.913 13.913 0 0 1 122.779 56.665 A 2.721 2.721 0 0 1 122.778 56.632 Q 122.778 54.58 125.782 47.314 Q 130.664 35.498 136.866 29.102 A 24.301 24.301 0 0 1 139.701 26.598 Q 141.288 25.419 142.842 24.769 A 9.837 9.837 0 0 1 146.338 23.975 Z M 112.305 39.795 L 119.532 10.4 Q 119.447 10.4 114.596 10.714 A 10643.208 10643.208 0 0 0 113.037 10.815 A 80.044 80.044 0 0 1 111.369 10.907 Q 106.263 11.131 103.858 10.498 Q 101.902 9.58 101.284 8.499 A 2.214 2.214 0 0 1 101.075 8.008 A 0.616 0.616 0 0 1 101.059 7.871 Q 101.059 6.905 104.346 6.494 L 107.52 6.201 L 111.719 5.908 Q 116.211 5.713 120.703 5.469 L 120.752 5.42 Q 120.947 4.594 121.262 2.896 A 151.286 151.286 0 0 0 121.265 2.881 Q 121.531 1.451 122.104 0.807 A 1.752 1.752 0 0 1 122.339 0.586 A 1.873 1.873 0 0 1 122.861 0.317 Q 123.669 0.031 125.241 0.003 A 19.633 19.633 0 0 1 125.586 0 A 2.398 2.398 0 0 1 126.166 0.104 Q 126.913 0.346 127.03 1.115 A 2.013 2.013 0 0 1 127.051 1.416 Q 127.051 2.148 127.002 2.295 L 126.221 5.322 L 143.067 5.078 Q 144.509 5.078 145.325 6.76 A 6.055 6.055 0 0 1 145.508 7.178 Q 145.695 7.664 145.739 8.064 A 2.178 2.178 0 0 1 145.752 8.301 Q 145.703 9.326 141.846 9.326 A 298.547 298.547 0 0 0 125.366 9.992 A 324.198 324.198 0 0 0 125.098 10.01 Q 116.422 45.104 114.047 53.452 A 60.724 60.724 0 0 1 113.55 55.127 A 94.893 94.893 0 0 1 112.676 57.756 Q 111.691 60.57 110.795 62.443 A 21.528 21.528 0 0 1 110.254 63.501 A 17.708 17.708 0 0 1 107.76 66.944 A 22.264 22.264 0 0 1 106.006 68.652 Q 103.862 70.529 102.318 70.964 A 3.31 3.31 0 0 1 101.514 71.094 A 1.157 1.157 0 0 1 101.259 71.027 Q 100.879 70.874 100.879 70.459 A 1.02 1.02 0 0 1 100.933 70.168 Q 101.125 69.548 102.002 68.213 Q 107.383 59.788 111.45 43.395 A 191.491 191.491 0 0 0 112.305 39.795 Z M 236.573 39.795 L 243.799 10.4 Q 243.714 10.4 238.864 10.714 A 10643.208 10643.208 0 0 0 237.305 10.815 A 80.044 80.044 0 0 1 235.636 10.907 Q 230.531 11.131 228.125 10.498 Q 226.17 9.58 225.552 8.499 A 2.214 2.214 0 0 1 225.342 8.008 A 0.616 0.616 0 0 1 225.326 7.871 Q 225.326 6.905 228.614 6.494 L 231.787 6.201 L 235.987 5.908 Q 240.479 5.713 244.971 5.469 L 245.02 5.42 Q 245.214 4.594 245.53 2.896 A 151.286 151.286 0 0 0 245.533 2.881 Q 245.798 1.451 246.372 0.807 A 1.752 1.752 0 0 1 246.607 0.586 A 1.873 1.873 0 0 1 247.129 0.317 Q 247.936 0.031 249.509 0.003 A 19.633 19.633 0 0 1 249.854 0 A 2.398 2.398 0 0 1 250.434 0.104 Q 251.181 0.346 251.297 1.115 A 2.013 2.013 0 0 1 251.319 1.416 Q 251.319 2.148 251.27 2.295 L 250.489 5.322 L 267.334 5.078 Q 268.776 5.078 269.593 6.76 A 6.055 6.055 0 0 1 269.776 7.178 Q 269.963 7.664 270.006 8.064 A 2.178 2.178 0 0 1 270.02 8.301 Q 269.971 9.326 266.114 9.326 A 298.547 298.547 0 0 0 249.634 9.992 A 324.198 324.198 0 0 0 249.366 10.01 Q 240.69 45.104 238.315 53.452 A 60.724 60.724 0 0 1 237.818 55.127 A 94.893 94.893 0 0 1 236.943 57.756 Q 235.959 60.57 235.062 62.443 A 21.528 21.528 0 0 1 234.522 63.501 A 17.708 17.708 0 0 1 232.027 66.944 A 22.264 22.264 0 0 1 230.274 68.652 Q 228.129 70.529 226.585 70.964 A 3.31 3.31 0 0 1 225.782 71.094 A 1.157 1.157 0 0 1 225.527 71.027 Q 225.147 70.874 225.147 70.459 A 1.02 1.02 0 0 1 225.201 70.168 Q 225.393 69.548 226.27 68.213 Q 231.651 59.788 235.717 43.395 A 191.491 191.491 0 0 0 236.573 39.795 Z M 44.58 46.973 L 45.069 45.557 Q 53.693 20.838 58.658 11.494 A 49.319 49.319 0 0 1 59.229 10.449 A 23.041 23.041 0 0 1 60.895 7.801 Q 63.698 4.004 66.846 4.004 A 12.02 12.02 0 0 1 68.962 4.191 Q 72.656 4.888 72.753 8.166 A 5.908 5.908 0 0 1 72.754 8.203 A 6.101 6.101 0 0 1 72.517 9.763 Q 71.847 12.254 69.287 16.382 A 95.631 95.631 0 0 1 67.199 19.578 Q 64.206 23.992 58.863 31.208 A 872.388 872.388 0 0 1 55.371 35.889 A 35.857 35.857 0 0 0 51.272 41.585 A 40.483 40.483 0 0 0 50.684 42.627 A 42.639 42.639 0 0 0 45.757 62.321 A 49.861 49.861 0 0 0 45.752 63.037 Q 45.752 66.992 47.315 70.654 A 14.443 14.443 0 0 0 48.843 73.418 Q 49.979 74.993 51.416 75.836 A 7.199 7.199 0 0 0 55.127 76.807 A 13.099 13.099 0 0 0 58.371 76.423 A 9.963 9.963 0 0 0 61.939 74.731 A 21.382 21.382 0 0 0 63.761 73.175 Q 65.576 71.457 67.74 68.811 A 78.678 78.678 0 0 0 68.457 67.92 A 4.418 4.418 0 0 1 68.932 67.393 Q 69.884 66.504 70.899 66.895 A 1.848 1.848 0 0 1 71.682 67.392 Q 72.168 67.929 72.168 68.896 A 7.528 7.528 0 0 1 70.249 73.882 Q 69.31 74.988 67.912 75.982 A 18.391 18.391 0 0 1 66.724 76.758 A 26.236 26.236 0 0 1 62.549 78.814 Q 60.002 79.783 57.577 79.979 A 15.201 15.201 0 0 1 56.348 80.029 A 17.509 17.509 0 0 1 50.133 79.015 Q 42.422 76.098 41.802 64.784 A 37.343 37.343 0 0 1 41.748 62.744 A 44.956 44.956 0 0 1 42.968 52.537 A 55.866 55.866 0 0 1 44.58 46.973 Z M 5.371 51.416 L 5.078 54.785 Q 5.078 55.611 5.326 56.097 A 1.222 1.222 0 0 0 6.397 56.787 A 2.961 2.961 0 0 0 8.682 55.533 Q 10.611 53.196 11.806 46.51 A 77.177 77.177 0 0 0 12.354 42.92 L 17.188 5.664 A 4.95 4.95 0 0 1 17.569 4.382 A 6.239 6.239 0 0 1 17.92 3.711 A 6.02 6.02 0 0 1 18.922 2.475 A 3.997 3.997 0 0 1 21.729 1.367 A 6.646 6.646 0 0 1 24.185 1.861 Q 25.064 2.208 25.962 2.8 A 12.825 12.825 0 0 1 26.563 3.223 A 6.323 6.323 0 0 1 28.254 5.057 Q 29.027 6.358 29.052 8.019 A 7.401 7.401 0 0 1 29.053 8.13 A 17.579 17.579 0 0 1 28.505 12.405 A 21.676 21.676 0 0 1 27.881 14.453 A 17.196 17.196 0 0 1 27.032 16.425 Q 25.972 18.485 24.656 19.241 A 3.184 3.184 0 0 1 23.047 19.678 A 3.792 3.792 0 0 1 22.136 19.575 A 2.35 2.35 0 0 1 20.703 18.604 L 17.09 43.115 Q 16.193 48.827 14.52 53.17 A 35.235 35.235 0 0 1 14.405 53.467 Q 11.975 59.393 8.713 60.852 A 5.377 5.377 0 0 1 6.494 61.328 A 5.573 5.573 0 0 1 3.87 60.648 Q 3.098 60.241 2.34 59.59 A 10.561 10.561 0 0 1 2.124 59.399 A 5.857 5.857 0 0 1 0.574 57.016 Q 0.224 56.057 0.088 54.867 A 14.232 14.232 0 0 1 0 53.247 A 8.147 8.147 0 0 1 0.133 51.703 Q 0.619 49.198 2.88 48.992 A 4.544 4.544 0 0 1 3.223 48.975 A 2.528 2.528 0 0 1 4.151 49.156 Q 5.221 49.607 5.357 51.18 A 5.214 5.214 0 0 1 5.371 51.416 Z M 298.291 43.359 Q 300.733 40.723 301.026 42.432 A 1.663 1.663 0 0 1 300.977 42.801 Q 300.845 43.372 300.354 44.323 A 17.154 17.154 0 0 1 300.244 44.531 A 31.542 31.542 0 0 1 297.881 48.23 Q 295.848 50.998 292.92 53.955 A 45.557 45.557 0 0 1 289.127 57.416 Q 283.606 61.865 279.102 61.865 A 8.291 8.291 0 0 1 276.553 61.487 A 7.058 7.058 0 0 1 274.268 60.254 A 9.018 9.018 0 0 1 271.641 56.554 Q 271.021 55.016 270.741 53.068 A 24.655 24.655 0 0 1 270.508 49.561 A 20.148 20.148 0 0 1 270.743 46.668 Q 271.175 43.719 272.401 39.711 A 88.323 88.323 0 0 1 273.169 37.329 A 42.478 42.478 0 0 1 281.348 23.047 Q 282.79 21.201 284.3 20.446 A 4.705 4.705 0 0 1 286.426 19.922 A 6.666 6.666 0 0 1 288.124 20.15 A 8.426 8.426 0 0 1 289.063 20.459 A 6.872 6.872 0 0 1 290.548 21.273 Q 292.286 22.556 292.286 24.707 A 2.028 2.028 0 0 1 292.267 24.96 Q 292.23 25.249 292.119 25.675 A 13.134 13.134 0 0 1 291.993 26.123 Q 290.632 28.811 288.143 32.063 A 73.345 73.345 0 0 1 285.547 35.254 A 53.948 53.948 0 0 1 281.349 39.645 Q 279.027 41.802 276.666 43.403 A 33.618 33.618 0 0 1 276.514 43.506 A 66.326 66.326 0 0 0 275.759 46.495 Q 274.952 50.063 274.952 52.344 A 111.27 111.27 0 0 0 274.957 53.453 Q 274.973 55.134 275.045 55.953 A 5.923 5.923 0 0 0 275.098 56.396 A 2.314 2.314 0 0 0 276.612 58.171 Q 277.083 58.352 277.693 58.415 A 6.659 6.659 0 0 0 278.369 58.447 A 7.639 7.639 0 0 0 280.667 58.064 Q 281.675 57.746 282.772 57.163 A 20.207 20.207 0 0 0 284.912 55.835 Q 288.102 53.59 291.651 50.101 A 82.53 82.53 0 0 0 292.823 48.926 Q 297.022 44.629 297.583 44.092 Q 298.145 43.555 298.291 43.359 Z M 33.985 54.883 L 33.301 55.908 Q 29.663 61.177 27.243 61.934 A 2.604 2.604 0 0 1 26.465 62.061 Q 23.67 61.759 22.958 58.39 A 10.326 10.326 0 0 1 22.803 57.422 A 16.068 16.068 0 0 1 22.942 55.512 Q 23.439 51.476 25.708 42.969 Q 28.307 33.228 31.59 25.833 A 79.765 79.765 0 0 1 32.373 24.121 A 18.414 18.414 0 0 1 33.301 22.433 Q 34.316 20.815 35.352 20.147 A 2.704 2.704 0 0 1 36.768 19.678 A 3.991 3.991 0 0 1 38.037 19.873 A 3.458 3.458 0 0 1 39.112 20.459 A 3.925 3.925 0 0 1 40.119 21.865 Q 40.821 23.433 40.821 26.123 Q 40.821 44.585 34.493 54.144 A 25.282 25.282 0 0 1 33.985 54.883 Z M 259.034 54.883 L 258.35 55.908 Q 254.712 61.177 252.291 61.934 A 2.604 2.604 0 0 1 251.514 62.061 Q 248.719 61.759 248.006 58.39 A 10.326 10.326 0 0 1 247.852 57.422 A 16.068 16.068 0 0 1 247.991 55.512 Q 248.487 51.476 250.757 42.969 Q 253.356 33.228 256.639 25.833 A 79.765 79.765 0 0 1 257.422 24.121 A 18.414 18.414 0 0 1 258.35 22.433 Q 259.365 20.815 260.401 20.147 A 2.704 2.704 0 0 1 261.817 19.678 A 3.991 3.991 0 0 1 263.086 19.873 A 3.458 3.458 0 0 1 264.161 20.459 A 3.925 3.925 0 0 1 265.168 21.865 Q 265.869 23.433 265.869 26.123 Q 265.869 44.585 259.542 54.144 A 25.282 25.282 0 0 1 259.034 54.883 Z M 136.256 36.515 A 35.931 35.931 0 0 0 134.961 38.379 A 40.805 40.805 0 0 0 131.085 45.812 A 29.539 29.539 0 0 0 129.004 55.566 A 609.894 609.894 0 0 0 139.49 41.333 A 455.149 455.149 0 0 0 148.584 28.125 Q 141.626 29.299 136.256 36.515 Z M 37.549 25.732 A 2.182 2.182 0 0 0 36.381 26.484 Q 34.241 28.777 31.25 37.939 A 362.224 362.224 0 0 0 29.939 42.031 Q 27.393 50.159 27.393 51.904 A 18.49 18.49 0 0 0 27.402 52.523 Q 27.445 53.774 27.673 54.002 A 0.155 0.155 0 0 0 27.784 54.053 Q 29.719 54.053 33.7 46.2 A 97.173 97.173 0 0 0 34.18 45.239 Q 38.526 36.426 38.526 29.102 Q 38.526 26.685 38.009 26.002 A 0.606 0.606 0 0 0 37.549 25.732 Z M 262.598 25.732 A 2.182 2.182 0 0 0 261.43 26.484 Q 259.29 28.777 256.299 37.939 A 362.224 362.224 0 0 0 254.988 42.031 Q 252.442 50.159 252.442 51.904 A 18.49 18.49 0 0 0 252.451 52.523 Q 252.493 53.774 252.721 54.002 A 0.155 0.155 0 0 0 252.832 54.053 Q 254.768 54.053 258.749 46.2 A 97.173 97.173 0 0 0 259.229 45.239 Q 263.575 36.426 263.575 29.102 Q 263.575 26.685 263.057 26.002 A 0.606 0.606 0 0 0 262.598 25.732 Z M 60.047 22.363 A 397.24 397.24 0 0 0 61.499 19.849 A 1085.684 1085.684 0 0 0 62.901 17.395 Q 67.524 9.281 67.481 8.96 Q 67.432 8.594 67.09 8.569 A 2.015 2.015 0 0 0 67.025 8.566 Q 66.792 8.557 66.69 8.614 A 0.178 0.178 0 0 0 66.651 8.643 A 3.744 3.744 0 0 0 65.866 9.366 Q 64.141 11.334 60.443 17.934 A 228.123 228.123 0 0 0 59.839 19.019 Q 54.974 27.812 54.661 29.917 A 1.775 1.775 0 0 0 54.639 30.176 A 0.361 0.361 0 0 0 54.661 30.304 A 0.324 0.324 0 0 0 54.737 30.42 Q 55.376 30.377 60.047 22.363 Z M 86.963 40.088 A 47.358 47.358 0 0 0 83.747 40.356 A 62.192 62.192 0 0 0 80.249 40.869 Q 77.123 41.415 74.592 41.491 A 26.826 26.826 0 0 1 73.78 41.504 A 51.9 51.9 0 0 1 72.511 41.49 Q 70.771 41.447 69.95 41.276 A 4.177 4.177 0 0 1 69.873 41.26 Q 68.616 40.486 68.556 39.09 A 3.214 3.214 0 0 1 68.555 39.063 A 1.546 1.546 0 0 1 68.628 38.768 Q 68.766 38.39 69.092 38.281 Q 81.397 36.67 87.354 36.67 Q 87.991 37.08 88.204 38.933 A 12.85 12.85 0 0 1 88.233 39.209 A 0.895 0.895 0 0 1 88.094 39.663 Q 87.868 40.004 87.276 40.071 A 2.775 2.775 0 0 1 86.963 40.088 Z M 211.231 40.088 A 47.358 47.358 0 0 0 208.014 40.356 A 62.192 62.192 0 0 0 204.517 40.869 Q 201.391 41.415 198.86 41.491 A 26.826 26.826 0 0 1 198.047 41.504 A 51.9 51.9 0 0 1 196.779 41.49 Q 195.038 41.447 194.217 41.276 A 4.177 4.177 0 0 1 194.141 41.26 Q 192.884 40.486 192.824 39.09 A 3.214 3.214 0 0 1 192.823 39.063 A 1.546 1.546 0 0 1 192.896 38.768 Q 193.034 38.39 193.36 38.281 Q 205.664 36.67 211.621 36.67 Q 212.259 37.08 212.472 38.933 A 12.85 12.85 0 0 1 212.5 39.209 A 0.895 0.895 0 0 1 212.362 39.663 Q 212.135 40.004 211.544 40.071 A 2.775 2.775 0 0 1 211.231 40.088 Z M 282.688 32.345 A 73.788 73.788 0 0 0 283.057 31.885 Q 285.405 28.932 286.042 26.912 A 4.605 4.605 0 0 0 286.28 25.537 A 1.169 1.169 0 0 0 286.239 25.243 Q 286.204 25.109 286.139 24.962 A 2.626 2.626 0 0 0 286.036 24.756 A 7.464 7.464 0 0 0 285.595 25.249 Q 284.566 26.487 282.348 29.747 A 217.056 217.056 0 0 0 281.958 30.322 Q 278.858 34.912 278.858 36.084 Q 279.777 35.946 282.688 32.345 Z M 21.094 13.525 Q 24.219 13.184 24.366 7.91 Q 23.52 7.999 22.41 8.879 A 9.448 9.448 0 0 0 22.193 9.058 A 3.174 3.174 0 0 0 21.269 10.416 Q 20.948 11.285 20.948 12.5 A 3.55 3.55 0 0 0 21.094 13.525 Z"/></g></svg>